<mxfile host="app.diagrams.net" modified="2023-04-22T23:02:20.905Z" agent="Mozilla/5.0 (Windows NT 10.0; Win64; x64) AppleWebKit/537.36 (KHTML, like Gecko) Chrome/111.0.0.0 Safari/537.36 OPR/97.0.0.0" etag="KzxqrZ_r7dO_gcVMXsiB" version="21.2.1" type="github" pages="3">
  <diagram name="Expressões" id="P3dyrYrs70NmfWMWJn4U">
    <mxGraphModel dx="1009" dy="550" grid="1" gridSize="10" guides="1" tooltips="1" connect="1" arrows="1" fold="1" page="1" pageScale="1" pageWidth="827" pageHeight="1169" math="0" shadow="0">
      <root>
        <mxCell id="0" />
        <mxCell id="1" parent="0" />
        <mxCell id="GpsZbRHaPmqiAzkO6zEi-4" value="" style="edgeStyle=orthogonalEdgeStyle;rounded=0;orthogonalLoop=1;jettySize=auto;html=1;" parent="1" source="GpsZbRHaPmqiAzkO6zEi-2" target="GpsZbRHaPmqiAzkO6zEi-3" edge="1">
          <mxGeometry relative="1" as="geometry" />
        </mxCell>
        <mxCell id="GpsZbRHaPmqiAzkO6zEi-2" value="&lt;font style=&quot;font-size: 16px;&quot;&gt;Inicio&lt;/font&gt;" style="strokeWidth=2;html=1;shape=mxgraph.flowchart.start_1;whiteSpace=wrap;" parent="1" vertex="1">
          <mxGeometry x="380" y="70" width="100" height="60" as="geometry" />
        </mxCell>
        <mxCell id="GpsZbRHaPmqiAzkO6zEi-6" value="" style="edgeStyle=orthogonalEdgeStyle;rounded=0;orthogonalLoop=1;jettySize=auto;html=1;" parent="1" source="GpsZbRHaPmqiAzkO6zEi-3" target="GpsZbRHaPmqiAzkO6zEi-5" edge="1">
          <mxGeometry relative="1" as="geometry" />
        </mxCell>
        <mxCell id="GpsZbRHaPmqiAzkO6zEi-3" value="EULER = 2.71828&amp;nbsp;&lt;br&gt;a =1.0&lt;br&gt;b= 4.5&lt;br&gt;c = 1.5&lt;br&gt;f = 2.0&lt;br&gt;g = 1.0&lt;br&gt;v = 2.0" style="rounded=1;whiteSpace=wrap;html=1;absoluteArcSize=1;arcSize=14;strokeWidth=2;" parent="1" vertex="1">
          <mxGeometry x="282" y="190" width="296" height="100" as="geometry" />
        </mxCell>
        <mxCell id="GpsZbRHaPmqiAzkO6zEi-10" value="" style="edgeStyle=orthogonalEdgeStyle;rounded=0;orthogonalLoop=1;jettySize=auto;html=1;" parent="1" source="GpsZbRHaPmqiAzkO6zEi-5" target="GpsZbRHaPmqiAzkO6zEi-9" edge="1">
          <mxGeometry relative="1" as="geometry" />
        </mxCell>
        <mxCell id="GpsZbRHaPmqiAzkO6zEi-5" value="&lt;div&gt;&lt;br&gt;&lt;/div&gt;&lt;div&gt;primeraOperacao = mat.potencia((b-c),v)&lt;/div&gt;&lt;div&gt;  segundaOperacao = a * b&lt;/div&gt;&lt;div&gt;&lt;span style=&quot;&quot;&gt;  &lt;/span&gt;terceiraOperacao = (primeraOperacao + segundaOperacao) / f&lt;/div&gt;&lt;div&gt;&lt;span style=&quot;&quot;&gt;  &lt;/span&gt;quartaOperacao = mat.potencia(terceiraOperacao, g)&lt;/div&gt;&lt;div&gt;&lt;span style=&quot;&quot;&gt;  &lt;/span&gt;z = mat.potencia(EULER, quartaOperacao)&lt;/div&gt;&lt;div&gt;&lt;div&gt;bhaskara = (-b + b*b - 4*a*c)/ (2*a)&lt;/div&gt;&lt;div&gt;  y = mat.logaritmo(bhaskara,EULER)&lt;/div&gt;&lt;/div&gt;&lt;div&gt;&lt;br&gt;&lt;/div&gt;" style="rounded=1;whiteSpace=wrap;html=1;absoluteArcSize=1;arcSize=14;strokeWidth=2;" parent="1" vertex="1">
          <mxGeometry x="204.5" y="350" width="451" height="140" as="geometry" />
        </mxCell>
        <mxCell id="GpsZbRHaPmqiAzkO6zEi-12" value="" style="edgeStyle=orthogonalEdgeStyle;rounded=0;orthogonalLoop=1;jettySize=auto;html=1;" parent="1" source="GpsZbRHaPmqiAzkO6zEi-9" target="GpsZbRHaPmqiAzkO6zEi-11" edge="1">
          <mxGeometry relative="1" as="geometry" />
        </mxCell>
        <mxCell id="GpsZbRHaPmqiAzkO6zEi-9" value="&amp;nbsp;i = 4.0&lt;br&gt;j = 2.0&lt;br&gt;teta = 30.0" style="rounded=1;whiteSpace=wrap;html=1;absoluteArcSize=1;arcSize=14;strokeWidth=2;" parent="1" vertex="1">
          <mxGeometry x="330" y="545" width="200" height="75" as="geometry" />
        </mxCell>
        <mxCell id="GpsZbRHaPmqiAzkO6zEi-14" value="" style="edgeStyle=orthogonalEdgeStyle;rounded=0;orthogonalLoop=1;jettySize=auto;html=1;" parent="1" source="GpsZbRHaPmqiAzkO6zEi-11" target="GpsZbRHaPmqiAzkO6zEi-13" edge="1">
          <mxGeometry relative="1" as="geometry" />
        </mxCell>
        <mxCell id="GpsZbRHaPmqiAzkO6zEi-11" value="&lt;div&gt;cosseno = mat.cosseno(teta)&lt;/div&gt;&lt;div&gt;  k = mat.raiz(i + j*j -2*cosseno, 2.0)&lt;/div&gt;" style="rounded=1;whiteSpace=wrap;html=1;absoluteArcSize=1;arcSize=14;strokeWidth=2;" parent="1" vertex="1">
          <mxGeometry x="305" y="680" width="250" height="90" as="geometry" />
        </mxCell>
        <mxCell id="GpsZbRHaPmqiAzkO6zEi-16" value="" style="edgeStyle=orthogonalEdgeStyle;rounded=0;orthogonalLoop=1;jettySize=auto;html=1;" parent="1" source="GpsZbRHaPmqiAzkO6zEi-13" target="GpsZbRHaPmqiAzkO6zEi-15" edge="1">
          <mxGeometry relative="1" as="geometry" />
        </mxCell>
        <mxCell id="GpsZbRHaPmqiAzkO6zEi-13" value="Valor de Z: &quot;,mat.arredondar(z,2),&quot;Valor de Y: &quot;,mat.arredondar(y, 2),&quot;Valor de K: &quot;,mat.arredondar(k, 2)" style="strokeWidth=2;html=1;shape=mxgraph.flowchart.display;whiteSpace=wrap;" parent="1" vertex="1">
          <mxGeometry x="167.5" y="840" width="525" height="100" as="geometry" />
        </mxCell>
        <mxCell id="GpsZbRHaPmqiAzkO6zEi-15" value="Fim" style="strokeWidth=2;html=1;shape=mxgraph.flowchart.start_1;whiteSpace=wrap;" parent="1" vertex="1">
          <mxGeometry x="380" y="1000" width="100" height="60" as="geometry" />
        </mxCell>
      </root>
    </mxGraphModel>
  </diagram>
  <diagram id="9dYWNQ17TjMbeHvtpnoa" name="Arredondamento">
    <mxGraphModel dx="2018" dy="1100" grid="1" gridSize="10" guides="1" tooltips="1" connect="1" arrows="1" fold="1" page="1" pageScale="1" pageWidth="827" pageHeight="1169" math="0" shadow="0">
      <root>
        <mxCell id="0" />
        <mxCell id="1" parent="0" />
        <mxCell id="o-JTYEx50g2psDXqRiDi-3" value="" style="edgeStyle=orthogonalEdgeStyle;rounded=0;orthogonalLoop=1;jettySize=auto;html=1;" edge="1" parent="1" source="o-JTYEx50g2psDXqRiDi-1" target="o-JTYEx50g2psDXqRiDi-2">
          <mxGeometry relative="1" as="geometry" />
        </mxCell>
        <mxCell id="o-JTYEx50g2psDXqRiDi-1" value="Inicio" style="strokeWidth=2;html=1;shape=mxgraph.flowchart.start_1;whiteSpace=wrap;" vertex="1" parent="1">
          <mxGeometry x="364" y="120" width="100" height="40" as="geometry" />
        </mxCell>
        <mxCell id="YpQsRiz5moXxxX50O3qF-2" value="" style="edgeStyle=orthogonalEdgeStyle;rounded=0;orthogonalLoop=1;jettySize=auto;html=1;entryX=0.499;entryY=0.172;entryDx=0;entryDy=0;entryPerimeter=0;" edge="1" parent="1" source="o-JTYEx50g2psDXqRiDi-2" target="YpQsRiz5moXxxX50O3qF-1">
          <mxGeometry relative="1" as="geometry" />
        </mxCell>
        <mxCell id="o-JTYEx50g2psDXqRiDi-2" value="&quot;Forneça um valor real com numeros decimais:&quot;" style="strokeWidth=2;html=1;shape=mxgraph.flowchart.display;whiteSpace=wrap;" vertex="1" parent="1">
          <mxGeometry x="276.5" y="190" width="275" height="60" as="geometry" />
        </mxCell>
        <mxCell id="YpQsRiz5moXxxX50O3qF-5" value="" style="edgeStyle=orthogonalEdgeStyle;rounded=0;orthogonalLoop=1;jettySize=auto;html=1;" edge="1" parent="1" source="YpQsRiz5moXxxX50O3qF-1" target="YpQsRiz5moXxxX50O3qF-4">
          <mxGeometry relative="1" as="geometry" />
        </mxCell>
        <mxCell id="YpQsRiz5moXxxX50O3qF-1" value="numero" style="html=1;strokeWidth=2;shape=manualInput;whiteSpace=wrap;rounded=1;size=26;arcSize=11;" vertex="1" parent="1">
          <mxGeometry x="364" y="270" width="100" height="60" as="geometry" />
        </mxCell>
        <mxCell id="YpQsRiz5moXxxX50O3qF-7" value="" style="edgeStyle=orthogonalEdgeStyle;rounded=0;orthogonalLoop=1;jettySize=auto;html=1;entryX=0.495;entryY=0.178;entryDx=0;entryDy=0;entryPerimeter=0;" edge="1" parent="1" source="YpQsRiz5moXxxX50O3qF-4" target="YpQsRiz5moXxxX50O3qF-6">
          <mxGeometry relative="1" as="geometry">
            <Array as="points">
              <mxPoint x="414" y="460" />
            </Array>
          </mxGeometry>
        </mxCell>
        <mxCell id="YpQsRiz5moXxxX50O3qF-4" value="&quot;Forneça o numero de casas decimais desejadas:&quot;" style="strokeWidth=2;html=1;shape=mxgraph.flowchart.display;whiteSpace=wrap;" vertex="1" parent="1">
          <mxGeometry x="284" y="360" width="259" height="60" as="geometry" />
        </mxCell>
        <mxCell id="YpQsRiz5moXxxX50O3qF-9" value="" style="edgeStyle=orthogonalEdgeStyle;rounded=0;orthogonalLoop=1;jettySize=auto;html=1;" edge="1" parent="1" source="YpQsRiz5moXxxX50O3qF-6" target="YpQsRiz5moXxxX50O3qF-8">
          <mxGeometry relative="1" as="geometry" />
        </mxCell>
        <mxCell id="YpQsRiz5moXxxX50O3qF-6" value="numeroDeCasas" style="html=1;strokeWidth=2;shape=manualInput;whiteSpace=wrap;rounded=1;size=26;arcSize=11;" vertex="1" parent="1">
          <mxGeometry x="364" y="450" width="100" height="60" as="geometry" />
        </mxCell>
        <mxCell id="YpQsRiz5moXxxX50O3qF-12" value="" style="edgeStyle=orthogonalEdgeStyle;rounded=0;orthogonalLoop=1;jettySize=auto;html=1;" edge="1" parent="1" source="YpQsRiz5moXxxX50O3qF-8" target="YpQsRiz5moXxxX50O3qF-11">
          <mxGeometry relative="1" as="geometry" />
        </mxCell>
        <mxCell id="YpQsRiz5moXxxX50O3qF-8" value="&lt;div&gt;numeroTruncado = numero * mat.potencia(10, numeroDeCasas)&lt;/div&gt;&lt;div&gt;  &lt;/div&gt;&lt;div&gt;&lt;span style=&quot;&quot;&gt;  &lt;/span&gt;numeroNovo = numeroTruncado / mat.potencia(10.0, numeroDeCasas)&lt;/div&gt;&lt;div&gt;&lt;br&gt;&lt;/div&gt;" style="rounded=1;whiteSpace=wrap;html=1;absoluteArcSize=1;arcSize=14;strokeWidth=2;" vertex="1" parent="1">
          <mxGeometry x="256" y="550" width="316" height="90" as="geometry" />
        </mxCell>
        <mxCell id="YpQsRiz5moXxxX50O3qF-14" value="" style="edgeStyle=orthogonalEdgeStyle;rounded=0;orthogonalLoop=1;jettySize=auto;html=1;" edge="1" parent="1" source="YpQsRiz5moXxxX50O3qF-11" target="YpQsRiz5moXxxX50O3qF-13">
          <mxGeometry relative="1" as="geometry" />
        </mxCell>
        <mxCell id="YpQsRiz5moXxxX50O3qF-11" value="&quot;O numero com &quot;,numeroDeCasas,&quot; casas decimais será: &quot;,numeroNovo" style="strokeWidth=2;html=1;shape=mxgraph.flowchart.display;whiteSpace=wrap;" vertex="1" parent="1">
          <mxGeometry x="224" y="680" width="380" height="70" as="geometry" />
        </mxCell>
        <mxCell id="YpQsRiz5moXxxX50O3qF-13" value="Fim" style="strokeWidth=2;html=1;shape=mxgraph.flowchart.start_1;whiteSpace=wrap;" vertex="1" parent="1">
          <mxGeometry x="364" y="790" width="100" height="40" as="geometry" />
        </mxCell>
      </root>
    </mxGraphModel>
  </diagram>
  <diagram id="LiHpnMp-OgVb6jc_KVhH" name="Conversão B --&gt; D">
    <mxGraphModel dx="1552" dy="2015" grid="1" gridSize="10" guides="1" tooltips="1" connect="1" arrows="1" fold="1" page="1" pageScale="1" pageWidth="827" pageHeight="1169" math="0" shadow="0">
      <root>
        <mxCell id="0" />
        <mxCell id="1" parent="0" />
        <mxCell id="ImI6FvGeIpouOzS70Qj9-5" value="" style="edgeStyle=orthogonalEdgeStyle;rounded=0;orthogonalLoop=1;jettySize=auto;html=1;" edge="1" parent="1" source="ImI6FvGeIpouOzS70Qj9-1" target="ImI6FvGeIpouOzS70Qj9-2">
          <mxGeometry relative="1" as="geometry" />
        </mxCell>
        <mxCell id="ImI6FvGeIpouOzS70Qj9-1" value="Inicio" style="strokeWidth=2;html=1;shape=mxgraph.flowchart.start_1;whiteSpace=wrap;" vertex="1" parent="1">
          <mxGeometry x="364" y="-1080" width="100" height="50" as="geometry" />
        </mxCell>
        <mxCell id="ImI6FvGeIpouOzS70Qj9-4" value="" style="edgeStyle=orthogonalEdgeStyle;rounded=0;orthogonalLoop=1;jettySize=auto;html=1;entryX=0.493;entryY=0.218;entryDx=0;entryDy=0;entryPerimeter=0;" edge="1" parent="1" source="ImI6FvGeIpouOzS70Qj9-2" target="ImI6FvGeIpouOzS70Qj9-3">
          <mxGeometry relative="1" as="geometry" />
        </mxCell>
        <mxCell id="ImI6FvGeIpouOzS70Qj9-2" value="&quot;Forneça um número binário de no máximo 3 dígitos&quot;" style="strokeWidth=2;html=1;shape=mxgraph.flowchart.display;whiteSpace=wrap;" vertex="1" parent="1">
          <mxGeometry x="236" y="-1000" width="356" height="60" as="geometry" />
        </mxCell>
        <mxCell id="ImI6FvGeIpouOzS70Qj9-7" value="" style="edgeStyle=orthogonalEdgeStyle;rounded=0;orthogonalLoop=1;jettySize=auto;html=1;" edge="1" parent="1" source="ImI6FvGeIpouOzS70Qj9-3" target="ImI6FvGeIpouOzS70Qj9-6">
          <mxGeometry relative="1" as="geometry" />
        </mxCell>
        <mxCell id="ImI6FvGeIpouOzS70Qj9-3" value="numeroBinario" style="html=1;strokeWidth=2;shape=manualInput;whiteSpace=wrap;rounded=1;size=26;arcSize=11;" vertex="1" parent="1">
          <mxGeometry x="364" y="-910" width="100" height="60" as="geometry" />
        </mxCell>
        <mxCell id="p0u02ipsuh4h0XbGYq4f-2" value="" style="edgeStyle=orthogonalEdgeStyle;rounded=0;orthogonalLoop=1;jettySize=auto;html=1;" edge="1" parent="1" source="ImI6FvGeIpouOzS70Qj9-6" target="p0u02ipsuh4h0XbGYq4f-1">
          <mxGeometry relative="1" as="geometry" />
        </mxCell>
        <mxCell id="ImI6FvGeIpouOzS70Qj9-6" value="&lt;div&gt;bitUm = numeroBinario /100&lt;/div&gt;&lt;div&gt;  bitDois = (numeroBinario /10) % 10&lt;/div&gt;&lt;div&gt;&lt;span style=&quot;&quot;&gt;  &lt;/span&gt;bitTres = numeroBinario %10&lt;/div&gt;&lt;div&gt;&lt;br&gt;&lt;/div&gt;&lt;div&gt;&lt;div&gt;digitoUm = bitUm * mat.potencia(2, 2)&lt;/div&gt;&lt;div&gt;  digitoDois = bitDois * mat.potencia(2, 1)&lt;/div&gt;&lt;div&gt;&lt;span style=&quot;&quot;&gt;  &lt;/span&gt;digitoTres = bitTres * mat.potencia(2, 0)&lt;/div&gt;&lt;/div&gt;&lt;div&gt;&lt;div&gt;&lt;br&gt;&lt;/div&gt;&lt;div&gt;numeroDecimal = digitoUm + digitoDois + digitoTres&lt;/div&gt;&lt;/div&gt;&lt;div&gt;&lt;br&gt;&lt;/div&gt;" style="rounded=1;whiteSpace=wrap;html=1;absoluteArcSize=1;arcSize=14;strokeWidth=2;" vertex="1" parent="1">
          <mxGeometry x="282" y="-810" width="264" height="170" as="geometry" />
        </mxCell>
        <mxCell id="p0u02ipsuh4h0XbGYq4f-4" value="" style="edgeStyle=orthogonalEdgeStyle;rounded=0;orthogonalLoop=1;jettySize=auto;html=1;" edge="1" parent="1" source="p0u02ipsuh4h0XbGYq4f-1" target="p0u02ipsuh4h0XbGYq4f-3">
          <mxGeometry relative="1" as="geometry" />
        </mxCell>
        <mxCell id="p0u02ipsuh4h0XbGYq4f-1" value="&quot;O número na base decimal é: &quot;,numeroDecimal" style="strokeWidth=2;html=1;shape=mxgraph.flowchart.display;whiteSpace=wrap;" vertex="1" parent="1">
          <mxGeometry x="254" y="-600" width="320" height="60" as="geometry" />
        </mxCell>
        <mxCell id="p0u02ipsuh4h0XbGYq4f-3" value="Fim" style="strokeWidth=2;html=1;shape=mxgraph.flowchart.start_1;whiteSpace=wrap;" vertex="1" parent="1">
          <mxGeometry x="364" y="-500" width="100" height="50" as="geometry" />
        </mxCell>
      </root>
    </mxGraphModel>
  </diagram>
</mxfile>
